<svg viewBox="0 0 220 150" fill="none" xmlns="http://www.w3.org/2000/svg"><path d="M22 128l19-56h138l19 56z" fill="#EAF2FF" stroke="#1A1D21" stroke-width="2.4" stroke-linejoin="round"/><g fill="#FFFFFF" stroke="#1A1D21" stroke-width="1.6"><rect x="46" y="80" width="16" height="13" rx="3.2"/><rect x="66" y="80" width="16" height="13" rx="3.2"/><rect x="86" y="80" width="16" height="13" rx="3.2"/><rect x="106" y="80" width="16" height="13" rx="3.2"/><rect x="126" y="80" width="16" height="13" rx="3.2"/><rect x="146" y="80" width="16" height="13" rx="3.2"/><rect x="52" y="98" width="16" height="13" rx="3.2"/><rect x="72" y="98" width="16" height="13" rx="3.2"/><rect x="138" y="98" width="16" height="13" rx="3.2"/><rect x="158" y="98" width="16" height="13" rx="3.2"/><rect x="70" y="116" width="60" height="10" rx="3.2"/></g><rect x="92" y="98" width="42" height="13" rx="3.2" fill="#D6E8FF" stroke="#1A1D21" stroke-width="1.6"/><g><g><path d="M102.6 93.8v20.3M121.4 93.8v20.3" stroke="#F4D7C0" stroke-width="6.8" stroke-linecap="round"/><path d="M96.9 114.0h11.4M115.6 114.0h11.4" stroke="#1E80FF" stroke-width="7.3" stroke-linecap="round"/></g><path d="M112.0 25.1C131.2 37.6 138.0 58.3 138.0 70.1C138.0 89.3 126.6 98.9 112.0 98.9C97.4 98.9 86.0 89.3 86.0 70.1C86.0 58.3 92.8 37.6 112.0 25.1Z" fill="#1E80FF" stroke="#1A1D21" stroke-width="1.9"/><path d="M98.5 50.9c2.6 -6.2 7.8 -6.2 10.4 0M115.1 50.9c2.6 -6.2 7.8 -6.2 10.4 0" stroke="#1A1D21" stroke-width="3.6" stroke-linecap="round" fill="none"/><path d="M112.0 60.0l5.2 11.4 12.5 1.3-9.1 8.6 2.3 12.2-10.9 -6.2 -10.9 6.22.3 -12.2 -9.1 -8.612.5 -1.3Z" fill="#FFD93B" stroke="#1A1D21" stroke-width="1.5" stroke-linejoin="round"/></g><path d="M52.0 33.0l3.5 7.5 7.5 3.5-7.5 3.5-3.5 7.5-3.5-7.5-7.5-3.57.5-3.5Z" fill="#1E80FF"/></svg>