<svg viewBox="0 0 220 150" fill="none" xmlns="http://www.w3.org/2000/svg"><rect x="30" y="30" width="126" height="90" rx="11" fill="#FFFFFF" stroke="#1A1D21" stroke-width="2.4"/><rect x="42" y="42" width="102" height="58" rx="7" fill="#EAF2FF" stroke="#1A1D21" stroke-width="1.9"/><path d="M54 56h56M54 68h74M54 80h42M54 92h64" stroke="#1E80FF" stroke-width="2.6" stroke-linecap="round" opacity="0.5"/><path d="M54 56h34M54 80h26" stroke="#1E80FF" stroke-width="2.6" stroke-linecap="round"/><path d="M82 120v9M68 129h32" stroke="#1A1D21" stroke-width="2.2" stroke-linecap="round"/><circle cx="93" cy="112" r="2.6" fill="#1E80FF"/><g><ellipse cx="172.0" cy="60.3" rx="40.5" ry="7.5" fill="none" stroke="#EFC21E" stroke-width="7.5"/><path d="M147.0 57.0C147.0 27.2 155.5 13.5 172.0 13.5C188.5 13.5 197.0 27.2 197.0 57.0L197.0 70.7C197.0 79.2 188.5 83.0 172.0 83.0C155.5 83.0 147.0 79.2 147.0 70.7Z" fill="#FF7A1A" stroke="#1A1D21" stroke-width="1.9"/><path d="M156.2 79.2v18.0" stroke="#FF7A1A" stroke-width="5.5" stroke-linecap="round"/><path d="M166.8 79.2v18.0" stroke="#FF7A1A" stroke-width="5.5" stroke-linecap="round"/><path d="M177.2 79.2v18.0" stroke="#FF7A1A" stroke-width="5.5" stroke-linecap="round"/><path d="M187.8 79.2v18.0" stroke="#FF7A1A" stroke-width="5.5" stroke-linecap="round"/><path d="M131.5 60.3A40.5 7.5 0 0 0 212.5 60.3" fill="none" stroke="#FFD93B" stroke-width="7.5" stroke-linecap="round"/><path d="M162.8 38.2v7.0M162.8 38.2h5.0v7.0M176.2 38.2v7.0M176.2 38.2h5.0v7.0" stroke="#3A1F00" stroke-width="3.2" stroke-linecap="round" stroke-linejoin="round" fill="none"/></g></svg>