<svg viewBox="0 0 220 150" fill="none" xmlns="http://www.w3.org/2000/svg"><rect x="20" y="26" width="152" height="98" rx="11" fill="#FFFFFF" stroke="#1A1D21" stroke-width="2.4"/><rect x="30" y="36" width="132" height="78" rx="7" fill="#EAF2FF" stroke="#1A1D21" stroke-width="1.9"/><rect x="40" y="45" width="54" height="30" rx="5" fill="#D6E8FF"/><rect x="101" y="45" width="54" height="30" rx="5" fill="#1E80FF"/><rect x="40" y="81" width="115" height="26" rx="5" fill="#FFFFFF" stroke="#1A1D21" stroke-width="1.5"/><path d="M46 53h32M46 63h42M46 72h26" stroke="#1E80FF" stroke-width="2.4" stroke-linecap="round"/><path d="M107 53h32M107 63h42M107 72h26" stroke="#FFFFFF" stroke-width="2.4" stroke-linecap="round"/><path d="M46 89h32M46 99h60" stroke="#1A1D21" stroke-width="2.2" stroke-linecap="round" opacity="0.35"/><path d="M84 124v8M66 132h52" stroke="#1A1D21" stroke-width="2.2" stroke-linecap="round"/><g><path d="M157.7 30.5C167.6 16.4 183.2 14.4 190.0 20.1C203.0 31.0 205.0 50.2 198.3 59.6C191.5 69.5 175.4 71.6 166.0 66.4C159.3 62.7 154.6 51.8 155.6 41.4C156.2 36.2 156.7 33.1 157.7 30.5Z" fill="#5FD9B4" stroke="#1A1D21" stroke-width="1.9" stroke-linejoin="round"/><path d="M165.8 21.6C165.8 10.2 174.6 10.2 174.6 21.6Z" fill="#C9CEC9" stroke="#1A1D21" stroke-width="1.4" stroke-linejoin="round"/><path d="M170.2 14.6v6.5" stroke="#1A1D21" stroke-width="1.1" opacity="0.55"/><path d="M174.1 21.6C174.1 10.2 182.9 10.2 182.9 21.6Z" fill="#C9CEC9" stroke="#1A1D21" stroke-width="1.4" stroke-linejoin="round"/><path d="M178.5 14.6v6.5" stroke="#1A1D21" stroke-width="1.1" opacity="0.55"/><circle cx="189.4" cy="34.1" r="6.8" fill="#FF9BB0" stroke="#1A1D21" stroke-width="1.4"/><circle cx="189.4" cy="34.1" r="2.9" fill="#FFFFFF" stroke="#1A1D21" stroke-width="1.1"/><circle cx="189.4" cy="34.1" r="1.3" fill="#1A1D21"/><path d="M164.5 41.4C169.2 52.8 177.5 55.4 182.2 50.8" stroke="#1A1D21" stroke-width="1.5" fill="none" stroke-linecap="round"/></g><path d="M196.0 98.0l3.2 6.8 6.8 3.2-6.8 3.2-3.2 6.8-3.2-6.8-6.8-3.26.8-3.2Z" fill="#1E80FF"/></svg>